HIERARCHY
ROOT Hips
{
 OFFSET 0.000000 0.000000 0.000000
 CHANNELS 6 Xposition Yposition Zposition Yrotation Xrotation Zrotation
 JOINT Chest
 {
  OFFSET 0.000000 12.953391 -0.028419
  CHANNELS 3 Yrotation Xrotation Zrotation
  JOINT Chest2
  {
   OFFSET 0.000000 10.280254 0.051622
   CHANNELS 3 Yrotation Xrotation Zrotation
   JOINT Chest3
   {
    OFFSET 0.000000 9.287180 0.000000
    CHANNELS 3 Yrotation Xrotation Zrotation
    JOINT Chest4
    {
     OFFSET 0.000000 9.287180 0.000000
     CHANNELS 3 Yrotation Xrotation Zrotation
     JOINT Neck
     {
      OFFSET 0.000000 13.296264 0.000000
      CHANNELS 3 Yrotation Xrotation Zrotation
      JOINT Head
      {
       OFFSET 0.000000 8.959264 0.099003
       CHANNELS 3 Yrotation Xrotation Zrotation
       End Site
       {
        OFFSET 0.000000 17.121337 0.039303
       }
      }
     }
     JOINT RightCollar
     {
      OFFSET -3.193511 7.451388 0.000000
      CHANNELS 3 Yrotation Xrotation Zrotation
      JOINT RightShoulder
      {
       OFFSET -15.792092 0.000000 0.000000
       CHANNELS 3 Yrotation Xrotation Zrotation
       JOINT RightElbow
       {
        OFFSET -31.151839 0.000000 0.000000
        CHANNELS 3 Yrotation Xrotation Zrotation
        JOINT RightWrist
        {
         OFFSET -25.536298 0.000000 0.002321
         CHANNELS 3 Yrotation Xrotation Zrotation
         End Site
         {
          OFFSET -19.133213 0.000000 0.000000
         }
        }
       }
      }
     }
     JOINT LeftCollar
     {
      OFFSET 3.193511 7.451388 0.000000
      CHANNELS 3 Yrotation Xrotation Zrotation
      JOINT LeftShoulder
      {
       OFFSET 15.792092 0.000000 0.000000
       CHANNELS 3 Yrotation Xrotation Zrotation
       JOINT LeftElbow
       {
        OFFSET 31.151839 0.000000 0.000000
        CHANNELS 3 Yrotation Xrotation Zrotation
        JOINT LeftWrist
        {
         OFFSET 25.536298 0.000000 0.002321
         CHANNELS 3 Yrotation Xrotation Zrotation
         End Site
         {
          OFFSET 19.133213 0.000000 0.000000
         }
        }
       }
      }
     }
    }
   }
  }
 }
 JOINT RightHip
 {
  OFFSET -10.745749 0.139252 0.014209
  CHANNELS 3 Yrotation Xrotation Zrotation
  JOINT RightKnee
  {
   OFFSET 0.000000 -43.743899 -0.006071
   CHANNELS 3 Yrotation Xrotation Zrotation
   JOINT RightAnkle
   {
    OFFSET 0.000000 -43.214199 0.089931
    CHANNELS 3 Yrotation Xrotation Zrotation
    JOINT RightToe
    {
     OFFSET 0.000000 -9.699830 19.151588
     CHANNELS 3 Yrotation Xrotation Zrotation
     End Site
     {
      OFFSET 0.000000 -1.292898 4.893873
     }
    }
   }
  }
 }
 JOINT LeftHip
 {
  OFFSET 10.745749 0.139252 0.014209
  CHANNELS 3 Yrotation Xrotation Zrotation
  JOINT LeftKnee
  {
   OFFSET 0.000000 -43.743899 -0.006071
   CHANNELS 3 Yrotation Xrotation Zrotation
   JOINT LeftAnkle
   {
    OFFSET 0.000000 -43.214199 0.089931
    CHANNELS 3 Yrotation Xrotation Zrotation
    JOINT LeftToe
    {
     OFFSET 0.000000 -9.699830 19.151588
     CHANNELS 3 Yrotation Xrotation Zrotation
     End Site
     {
      OFFSET 0.000000 -1.292898 4.893873
     }
    }
   }
  }
 }
}
MOTION
Frames: 7
Frame Time: 0.016667
-100.960063 98.858021 -29.103227 88.912850 -14.865247 5.721602 -1.436493 14.363576 1.870765 -0.691590 6.378031 0.869491 -0.691590 6.378031 0.869491 -0.527264 4.782560 0.658688 -9.356374 25.186599 3.198911 -17.485124 11.515374 7.873057 8.444634 4.800429 9.727445 11.018248 -22.310000 57.289828 10.259497 9.241628 -11.446434 -23.343894 25.643393 -46.631493 -6.155929 -1.441482 -10.239745 -23.013847 -3.141983 -76.843704 -14.716861 -11.300405 4.681178 9.123606 16.311103 13.462560 -11.704682 18.543646 -3.742772 -2.021375 1.362171 -0.053965 -27.277347 -7.795611 -1.084701 0.000000 0.000000 -0.000000 13.250685 7.573966 6.761628 -2.443325 14.024392 -0.629906 -5.005991 -3.626026 -10.452515 -0.000000 0.000000 0.000000
-101.095052 98.882686 -29.341707 89.154678 -14.675082 5.738461 -1.469983 14.282812 1.863354 -0.705832 6.342017 0.867083 -0.705823 6.342013 0.867083 -0.537851 4.755526 0.656998 -9.387943 25.225525 3.217934 -17.542648 11.594659 7.908504 8.402165 4.863309 9.833719 10.996131 -22.249243 57.173647 10.200093 8.893364 -11.368196 -23.295672 25.968068 -47.574047 -6.158753 -1.287631 -10.164149 -23.026170 -3.222535 -76.882369 -14.871420 -11.270501 4.766820 9.187260 16.320023 13.509464 -11.562796 18.275239 -3.829881 -2.476687 1.326053 0.017932 -27.162332 -7.638822 -1.112740 -0.000000 -0.000000 0.000000 13.488092 7.404309 6.595420 -1.982715 13.883745 -0.369393 -5.353670 -4.185653 -10.439287 -0.000000 0.000000 -0.000000
-101.230041 98.907351 -29.580187 89.396356 -14.484987 5.756134 -1.503420 14.202030 1.855806 -0.720077 6.306006 0.864600 -0.720070 6.306003 0.864601 -0.548457 4.728502 0.655252 -9.419405 25.264451 3.237078 -17.599938 11.674037 7.944054 8.359962 4.926034 9.940161 10.973492 -22.188489 57.057723 10.140599 8.545364 -11.288670 -23.252454 26.291348 -48.519224 -6.161205 -1.133963 -10.088182 -23.038590 -3.302970 -76.921221 -15.026065 -11.240486 4.852066 9.250850 16.328934 13.556496 -11.421409 18.007453 -3.919302 -2.932250 1.291383 0.089304 -27.047282 -7.482091 -1.140497 0.000000 0.000000 -0.000000 13.725537 7.236527 6.427078 -1.523409 13.738353 -0.111896 -5.701581 -4.745055 -10.431642 -0.000000 0.000000 0.000000
-101.361457 98.929022 -29.818184 89.633852 -14.312647 5.745836 -1.528222 14.131089 1.851373 -0.730652 6.274398 0.863235 -0.730652 6.274398 0.863235 -0.556336 4.704787 0.654307 -9.449021 25.301061 3.262442 -17.655479 11.749948 7.990546 8.318554 4.987629 10.046377 10.947232 -22.119500 56.996540 10.070181 8.185711 -11.236276 -23.069512 26.536569 -49.616725 -6.166180 -0.995612 -10.008926 -23.054069 -3.373458 -76.946783 -15.155851 -11.226413 4.935168 9.310837 16.345919 13.601316 -11.328305 17.755748 -4.004835 -3.314307 1.266985 0.160204 -26.950074 -7.332835 -1.158463 0.000000 0.000000 0.000000 13.988958 7.063389 6.305490 -1.003809 13.695864 0.129350 -5.598087 -5.231485 -10.251044 -0.000000 0.000000 -0.000000
-101.488550 98.946497 -30.052641 89.858810 -14.163297 5.694593 -1.535946 14.075973 1.853786 -0.733953 6.249868 0.864400 -0.733955 6.249870 0.864399 -0.558793 4.686386 0.655188 -9.477084 25.334583 3.298617 -17.710940 11.821774 8.056299 8.276725 5.047601 10.151011 10.941711 -22.033844 57.004654 9.956535 7.792610 -11.234441 -22.647057 26.655104 -51.017951 -6.176558 -0.881897 -9.923891 -23.073423 -3.430697 -76.953395 -15.252336 -11.230809 5.014857 9.365200 16.376830 13.643185 -11.314047 17.522291 -4.085962 -3.576516 1.257526 0.233937 -26.875715 -7.195803 -1.164828 0.000000 0.000000 0.000000 14.283077 6.884836 6.251049 -0.385199 13.796335 0.351435 -4.760877 -5.679107 -9.867750 0.000000 -0.000000 0.000000
-101.612069 98.960978 -30.286615 90.079415 -14.031330 5.615137 -1.535139 14.030697 1.859289 -0.733613 6.229729 0.866692 -0.733614 6.229731 0.866692 -0.558534 4.671280 0.656883 -9.503240 25.365805 3.341013 -17.764570 11.890213 8.132952 8.235805 5.106495 10.255444 10.933302 -21.940013 57.067288 9.833439 7.387182 -11.258523 -22.077301 26.707544 -52.566390 -6.189397 -0.783501 -9.835693 -23.095793 -3.478095 -76.946613 -15.324079 -11.251243 5.092656 9.415974 16.415789 13.682899 -11.347870 17.304497 -4.161444 -3.765104 1.257535 0.307425 -26.819151 -7.066232 -1.161556 0.000000 -0.000000 0.000000 14.602867 6.699164 6.242915 0.297104 13.999484 0.564704 -3.472584 -6.080848 -9.327453 0.000000 0.000000 0.000000
-101.730698 98.973073 -30.528801 90.316389 -13.918017 5.517206 -1.542758 13.987213 1.859910 -0.736845 6.210366 0.867089 -0.736845 6.210366 0.867089 -0.560934 4.656750 0.657193 -9.524797 25.394775 3.381925 -17.809781 11.953657 8.206259 8.200172 5.164910 10.363359 10.847241 -21.855085 57.194908 9.788723 7.022368 -11.266275 -21.503522 26.780343 -53.948414 -6.198827 -0.687586 -9.749107 -23.121614 -3.515918 -76.929733 -15.371736 -11.296346 5.171122 9.465704 16.453272 13.720442 -11.385587 17.110534 -4.223801 -3.945133 1.260571 0.371133 -26.783107 -6.937283 -1.144882 0.000000 0.000000 0.000000 14.959557 6.496209 6.267574 0.995075 14.292157 0.778899 -2.128963 -6.310887 -8.555461 -0.000000 0.000000 -0.000000
